<svg width="24" height="28" viewBox="0 0 24 28" fill="none" xmlns="http://www.w3.org/2000/svg">
<path d="M19.53 5.24998L15.68 7.55998L15.4 7.76998L15.12 7.97998L14.84 8.11998L14.7 8.18998L14.56 8.25998L14.35 8.32998L14.21 8.39998L13.79 8.46998L13.37 8.53998L13.16 8.60998L12.95 8.67998L13.23 8.81998L13.51 9.02998L13.72 9.23998L13.93 9.51998L14 9.65998L14.07 9.79998L14.14 9.93998L14.21 10.08L14.28 10.22V10.36V10.57V10.78V11.06V11.34L14.21 11.62L14.14 11.9L14.07 12.11V12.6L13.93 12.81L13.79 13.02L13.65 13.23L13.44 13.3L13.23 13.44L13.02 13.58L12.81 13.65L12.53 13.72L12.25 13.79L11.97 13.86L12.04 9.79998L12.11 7.76998V5.73998H14.07V5.10998H10.01V2.58998L10.36 2.23998V4.61998H11.2V2.72998L11.62 2.23998V4.61998H12.6V2.72998L13.02 2.23998V2.79998V4.68998H13.93V2.58998L13.02 2.02998L12.6 2.51998L11.76 1.95998L11.34 2.51998L10.5 1.95998L10.08 2.30998V1.60998H14.14V0.97998H9.38V5.73998H9.8H10.29H10.71H11.13L11.2 9.79998L11.27 13.86L10.99 13.79L10.71 13.72L10.5 13.65L10.29 13.58L10.08 13.44L9.87 13.3L9.66 13.16L9.52 13.02L9.38 12.81L9.24 12.6L9.1 12.32L8.96 12.04L8.89 11.76L8.82 11.48V11.13V10.85V10.71V10.57L8.89 10.43L8.96 10.29L9.03 10.15L9.1 10.01L9.31 9.72998L9.52 9.51998L9.73 9.30998L9.94 9.09998L10.15 8.88998L9.94 8.81998L9.73 8.74998L9.31 8.67998L9.03 8.39998L8.82 8.32998L8.61 8.25998L8.47 8.18998L8.4 8.11998L8.26 8.04998L8.12 7.97998L6.09 6.64998L4.06 5.38998L0 2.86998L0.21 4.05998L0.42 5.24998L4.2 7.13998L7.98 9.09998V9.16998V9.23998L7.91 9.30998L7.84 9.37998L6.09 8.60998L4.34 7.83998L2.59 7.06998L0.7 6.29998L0.91 6.85998L1.12 7.41998L1.4 7.97998L1.61 8.53998L3.08 8.95998L4.55 9.37998L6.02 9.79998L6.72 10.01L7.42 10.22V10.36V10.5L4.69 9.86998L3.29 9.58998L1.96 9.30998L2.59 10.15L2.87 10.57L3.15 10.99L5.25 11.34L7.28 11.69V11.9V11.97V12.04V12.11L6.37 12.04L5.6 11.97L4.76 11.9L3.85 11.76L3.92 11.9L4.06 12.04L4.34 12.39L4.55 12.74L4.69 12.95L4.76 13.02H4.83H4.97H5.18H5.6L6.72 13.09L7.84 13.16V13.23V13.3L7.91 13.44L7.98 13.51V13.58V13.65L5.46 13.44L5.6 13.79L5.74 13.93L5.95 14.21L6.23 14.49L6.51 14.77H6.86L7.14 14.84L7.42 14.91H7.7L7.49 15.05L7.28 15.19L7.07 15.33L6.86 15.54L6.72 15.75L6.65 15.89L6.58 16.03L6.51 16.1V16.24V16.38V16.52V16.66V16.8V16.94V17.08L6.58 17.29L6.72 17.5L6.86 17.71L7 17.92L7.14 18.06L7.28 18.2L7.56 18.41L7.91 18.55L8.26 18.69L8.61 18.83L9.03 18.97L9.45 19.11L9.8 19.18L10.22 19.25L9.8 19.39L9.45 19.6L9.31 19.67L9.1 19.81L8.96 19.95L8.82 20.09L8.75 20.23L8.61 20.3L8.54 20.44L8.47 20.58L8.4 20.79V21V21.14V21.35V21.42V21.49L8.54 21.7L8.68 21.91L8.82 22.05L9.03 22.19L9.24 22.33L9.45 22.47L9.73 22.61L10.01 22.75L10.29 22.82L10.57 22.89L10.85 22.96L10.78 23.1L10.64 23.17L10.5 23.31L10.43 23.45L10.36 23.59L10.29 23.73V23.8V23.87V23.94V24.01V24.15V24.22L10.36 24.29L10.43 24.36L10.5 24.43L10.57 24.5L10.71 24.64L10.92 24.71L11.13 24.78L11.62 24.85V25.2V25.34V25.48V25.62H11.55V25.69V25.76L11.48 25.97L11.2 27.16L11.06 26.6L10.99 26.11V26.04L10.92 25.62H10.64L11.13 27.93H11.2L11.62 26.18V26.11V26.04L11.69 26.18L11.76 26.39L11.9 26.88L11.97 27.37V27.51L12.04 27.65V27.72V27.79H12.25L12.81 25.48H12.53V25.55V25.62V25.76V25.9V26.11L12.32 26.95V27.3L12.25 27.58V27.51V27.44V27.37V27.3V27.23V27.16V27.09L11.97 25.9H11.9V25.2H12.11L12.32 25.13L12.53 25.06L12.74 24.99L12.95 24.85L13.02 24.78L13.09 24.71L13.16 24.64L13.23 24.57V24.5V24.43V24.36V24.29V23.8V23.73L13.16 23.59L13.09 23.45L12.95 23.31L12.81 23.24L12.53 23.03L13.02 22.89L13.51 22.75L13.72 22.68L13.93 22.61L14.14 22.47L14.35 22.33L14.56 22.19L14.77 21.98L14.84 21.84L14.91 21.7L14.98 21.56V21.42V21.21V21V20.79V20.65L14.91 20.51L14.7 20.37L14.63 20.23L14.56 20.09L14.42 19.95L14.28 19.81L14.14 19.67L13.86 19.6L13.51 19.39L13.16 19.25L13.65 19.11L14.21 18.97L14.7 18.83L14.98 18.76L15.19 18.62L15.4 18.48L15.61 18.34L15.82 18.2L16.03 18.06L16.24 17.92L16.38 17.78L16.52 17.57L16.66 17.36L16.73 17.29L16.8 17.15V17.01V16.87V16.73V16.59V16.45V16.31V16.17V16.03L16.73 15.89L16.66 15.82L16.52 15.61L16.38 15.47L16.24 15.33L16.03 15.19L15.68 14.91L15.82 14.84H15.96H16.31H16.45H16.59H16.73L16.87 14.77H16.94L17.01 14.7L17.15 14.56L17.43 14.28L17.71 14L17.85 13.86V13.79L17.15 13.86H16.52L15.82 13.93H15.12L15.26 13.72L15.33 13.65L15.4 13.58L16.94 13.44L18.48 13.3L18.9 12.6L19.25 12.11L19.39 11.97V11.9V11.83L17.64 12.04L16.73 12.11L15.82 12.18V12.11V12.04V11.97V11.9L17.85 11.55L19.95 11.2L20.58 10.36L20.93 9.93998L21.21 9.51998L19.81 9.86998L18.48 10.15L15.75 10.78V10.5V10.43V10.36V10.29L17.22 9.86998L18.69 9.44998L20.16 9.02998L21.63 8.60998L21.84 8.04998L22.05 7.48998L22.4 6.92998L22.47 6.64998L22.54 6.36998L18.97 7.90998L17.15 8.67998L15.33 9.44998L15.4 9.30998V9.23998L15.26 9.09998L19.04 7.20998L22.82 5.31998L23.1 4.05998L23.24 3.49998L23.31 2.93998L21.42 4.05998L19.53 5.24998ZM9.03 16.59V16.52H9.1L9.17 16.59L9.24 16.66L9.31 16.73L9.38 16.87L9.45 17.01L9.24 16.94L9.17 16.87L9.1 16.8L9.03 16.73V16.59ZM9.8 18.34L9.52 18.27L9.24 18.2L8.96 18.13L8.75 18.06L8.54 17.99L8.33 17.92L8.12 17.78L7.98 17.64L7.84 17.5L7.7 17.36L7.63 17.22L7.56 17.08L7.49 16.87V16.66V16.45V16.24V16.17V16.1L7.56 16.03L7.63 15.96L7.77 15.89L7.91 15.82L8.05 15.75H8.12H8.19H8.26L8.33 15.82L8.4 15.89L8.47 15.96L8.54 16.03L8.61 16.1V16.17V16.24V16.38V16.52V16.59V16.66V16.73L8.68 16.8L8.75 16.87L8.82 16.94L8.89 17.01L8.96 17.08L9.17 17.15L9.31 17.22H9.45H9.59H9.8H9.94L10.08 17.15H10.15H10.22L10.29 17.08V17.01V16.94V16.8V16.45L10.22 16.17L10.15 15.96L10.08 15.82L10.01 15.68L9.87 15.61L9.73 15.54H9.59H9.45H9.31L9.1 15.61L9.03 15.47V15.33V15.26L9.1 15.19L9.17 15.12L9.24 15.05H9.38H9.52L9.73 15.12L9.94 15.19L10.43 15.4L10.64 15.47L10.92 15.54H11.06H11.2H11.34H11.48V16.31V17.08V17.85V18.62L10.92 18.55L10.36 18.48L9.8 18.34ZM9.73 16.1L9.87 16.03L9.94 16.1L10.01 16.17L10.08 16.24H10.01H9.94L9.87 16.17L9.73 16.1ZM10.85 22.19L10.57 22.12L10.29 22.05L10.08 21.91L10.01 21.84L9.94 21.77L9.8 21.7L9.73 21.63L9.66 21.49L9.59 21.42V21.28V21.14V21V20.86V20.72L9.66 20.65L9.73 20.58L9.8 20.51L9.94 20.37L10.08 20.23L10.29 20.16L10.5 20.09L10.71 20.02L10.92 19.95H11.2H11.48V21.14V22.4H11.2L10.85 22.19ZM11.62 23.94V24.22V24.5V24.64H11.55H11.41H11.27L11.2 24.57L11.13 24.5L11.06 24.43L10.99 24.36V24.29V24.22V24.08V24.01L11.06 23.94L11.13 23.87L11.2 23.8L11.27 23.73L11.41 23.66H11.55H11.62V23.94ZM12.39 24.15V24.29L12.32 24.36L12.25 24.43L12.11 24.5L12.04 24.57H11.9H11.76V23.94V23.66V23.31H11.9L12.04 23.38L12.11 23.45L12.18 23.52L12.25 23.59L12.32 23.66V23.73V24.08L12.39 24.15ZM13.23 20.23L13.37 20.3L13.44 20.44L13.51 20.51L13.58 20.65L13.65 20.79V20.93V21.07V21.21V21.35L13.58 21.49L13.51 21.56L13.44 21.63L13.37 21.7L13.23 21.77L13.09 21.84L12.81 21.98L12.53 22.05L12.25 22.12L11.97 22.19V21.56V20.93V20.3V20.02V19.74H12.32L12.67 19.81H12.81L12.95 19.88L13.09 19.95V20.16L13.23 20.23ZM15.26 15.68H15.4H15.47L15.54 15.75L15.61 15.82L15.68 15.89L15.75 15.96L15.82 16.03V16.1V16.17V16.24V16.38V16.52V16.66V16.8V16.87L15.75 16.94L15.61 17.08L15.47 17.22L15.4 17.5L15.19 17.64L14.98 17.78L14.77 17.92L14.56 17.99L14.28 18.06L14 18.2L13.72 18.27L13.44 18.34L12.88 18.41L12.32 18.48L11.76 18.55V17.78V17.01V16.24V15.47H12.04L12.32 15.4L12.53 15.33L12.74 15.26L13.16 15.12L13.37 15.05L13.58 14.98H13.65H13.79H13.93H14H14.07V15.05V15.12V15.26V15.4V15.54L14 15.61H13.86H13.72H13.58L13.44 15.68L13.3 15.75L13.23 15.82L13.16 15.96L13.09 16.17L13.02 16.45L12.88 16.8V16.94V17.01L12.95 17.08L13.02 17.15L13.09 17.22L13.16 17.29H13.3H13.44H13.58H13.72H13.86H14L14.14 17.22L14.28 17.15L14.42 17.08L14.49 17.01L14.56 16.94L14.63 16.87V16.8V16.73V16.59V16.24V16.1V15.96V15.89L14.7 15.82L14.77 15.75H14.84H14.98L15.26 15.68ZM13.93 17.01H13.72L13.58 16.94L13.72 16.8H13.79H13.86H13.93H14L14.07 16.87L13.93 17.01ZM13.51 16.31H13.3V16.24L13.37 16.17L13.44 16.1H13.51H13.58V16.17V16.24V16.31H13.51Z" fill="black"/>
</svg>
